<svg width="28" height="28" viewBox="0 0 28 28" fill="none" xmlns="http://www.w3.org/2000/svg">
<path d="M25.4398 11.7151H24.5V11.6667H14V16.3334H20.5934C19.6315 19.0499 17.0468 21 14 21C10.1343 21 7.00002 17.8658 7.00002 14C7.00002 10.1343 10.1343 7.00002 14 7.00002C15.7844 7.00002 17.4079 7.67318 18.6439 8.77277L21.9439 5.47285C19.8602 3.53093 17.073 2.33334 14 2.33334C7.5571 2.33334 2.33334 7.5571 2.33334 14C2.33334 20.4429 7.5571 25.6667 14 25.6667C20.4429 25.6667 25.6667 20.4429 25.6667 14C25.6667 13.2178 25.5862 12.4542 25.4398 11.7151Z" fill="#FFC107"/>
<path d="M3.67858 8.56977L7.51166 11.3809C8.54883 8.81302 11.0607 7.00002 14.0001 7.00002C15.7845 7.00002 17.4079 7.67318 18.644 8.77277L21.9439 5.47285C19.8603 3.53093 17.0731 2.33334 14.0001 2.33334C9.51892 2.33334 5.63274 4.86326 3.67858 8.56977Z" fill="#FF3D00"/>
<path d="M14.0001 25.6667C17.0136 25.6667 19.7517 24.5135 21.822 22.638L18.2112 19.5825C17.0005 20.5033 15.5211 21.0012 14.0001 21C10.9656 21 8.38898 19.0651 7.41832 16.3649L3.61381 19.2961C5.54465 23.0744 9.46582 25.6667 14.0001 25.6667Z" fill="#4CAF50"/>
<path d="M25.4398 11.7151H24.5001V11.6667H14.0001V16.3334H20.5935C20.1334 17.6263 19.3045 18.7561 18.2094 19.5831L18.2111 19.582L21.822 22.6375C21.5665 22.8696 25.6667 19.8334 25.6667 14.0001C25.6667 13.2178 25.5862 12.4542 25.4398 11.7151Z" fill="#1976D2"/>
</svg>
