<svg width="20" height="20" viewBox="0 0 20 20" fill="none" xmlns="http://www.w3.org/2000/svg">
<path fill-rule="evenodd" clip-rule="evenodd" d="M9.99996 1.66675C14.595 1.66675 18.3333 5.40508 18.3333 10.0001C18.3333 14.5951 14.595 18.3334 9.99996 18.3334C5.40496 18.3334 1.66663 14.5951 1.66663 10.0001C1.66663 5.40508 5.40496 1.66675 9.99996 1.66675ZM9.99996 2.91675C6.09413 2.91675 2.91663 6.09425 2.91663 10.0001C2.91663 13.9059 6.09413 17.0834 9.99996 17.0834C13.9058 17.0834 17.0833 13.9059 17.0833 10.0001C17.0833 6.09425 13.9058 2.91675 9.99996 2.91675ZM9.71762 5.91291C10.0635 5.91291 10.3426 6.19291 10.3426 6.53791V10.2229L13.1801 11.9146C13.476 12.0921 13.5735 12.4754 13.3968 12.7721C13.2793 12.9679 13.0718 13.0771 12.8593 13.0771C12.7501 13.0771 12.6401 13.0487 12.5393 12.9896L9.39762 11.1154C9.20929 11.0021 9.09262 10.7979 9.09262 10.5779V6.53791C9.09262 6.19291 9.37262 5.91291 9.71762 5.91291Z" fill="#666666"/>
</svg>
