<svg width="30" height="30" viewBox="0 0 30 30" fill="none" xmlns="http://www.w3.org/2000/svg">
<path d="M24.5813 21.0138C24.2352 21.8207 23.8075 22.5901 23.3051 23.31C22.6338 24.2688 22.0826 24.9313 21.6601 25.3C21.0038 25.9025 20.2988 26.2125 19.5451 26.23C19.0051 26.23 18.3526 26.0763 17.5926 25.7638C16.8301 25.4525 16.1301 25.3 15.4888 25.3C14.8176 25.3 14.0976 25.4525 13.3263 25.7638C12.5563 26.0763 11.9338 26.24 11.4576 26.255C10.7363 26.2863 10.0151 25.9688 9.2963 25.3C8.83755 24.9 8.2638 24.2125 7.57505 23.24C6.83755 22.2038 6.2313 20.9975 5.7563 19.6263C5.24755 18.1425 4.99255 16.7075 4.99255 15.3175C4.99255 13.7263 5.3363 12.3525 6.02505 11.2025C6.54599 10.2994 7.29074 9.54557 8.18755 9.01378C9.07189 8.48337 10.0814 8.19776 11.1126 8.18628C11.6876 8.18628 12.4413 8.36378 13.3751 8.71378C14.3088 9.06378 14.9088 9.24128 15.1701 9.24128C15.3676 9.24128 16.0313 9.03253 17.1613 8.61878C18.2276 8.23503 19.1276 8.07628 19.8651 8.13878C21.8651 8.30003 23.3663 9.08753 24.3651 10.5075C22.5776 11.5913 21.6938 13.1075 21.7113 15.0538C21.7263 16.57 22.2776 17.8313 23.3576 18.8325C23.835 19.2894 24.3921 19.6551 25.0013 19.9113C24.8688 20.295 24.7288 20.6613 24.5813 21.0138ZM19.9976 2.97503C19.9976 4.16253 19.5626 5.27253 18.6988 6.29878C17.6538 7.51878 16.3913 8.22503 15.0226 8.11378C15.0047 7.96445 14.9959 7.81417 14.9963 7.66378C14.9963 6.52253 15.4913 5.30253 16.3751 4.30378C16.8151 3.79878 17.3751 3.37753 18.0538 3.04253C18.7313 2.71253 19.3713 2.53003 19.9738 2.49878C19.9901 2.65878 19.9976 2.81753 19.9976 2.97503Z" fill="#9D9D9D"/>
</svg>
