<svg width="19" height="12" viewBox="0 0 19 12" fill="none" xmlns="http://www.w3.org/2000/svg">
<path fill-rule="evenodd" clip-rule="evenodd" d="M9.5 10.0273C8.49378 10.8754 7.18855 11.3874 5.76229 11.3874C2.57987 11.3874 0 8.83828 0 5.69372C0 2.54917 2.57987 0 5.76229 0C7.18855 0 8.49378 0.512008 9.5 1.36015C10.5062 0.512008 11.8114 0 13.2377 0C16.4201 0 19 2.54917 19 5.69372C19 8.83828 16.4201 11.3874 13.2377 11.3874C11.8114 11.3874 10.5062 10.8754 9.5 10.0273Z" fill="#ED0006"/>
<path fill-rule="evenodd" clip-rule="evenodd" d="M9.5 10.0273C10.739 8.98296 11.5246 7.42899 11.5246 5.69372C11.5246 3.95845 10.739 2.40449 9.5 1.36015C10.5062 0.512007 11.8114 0 13.2377 0C16.4201 0 19 2.54917 19 5.69372C19 8.83828 16.4201 11.3874 13.2377 11.3874C11.8114 11.3874 10.5062 10.8754 9.5 10.0273Z" fill="#F9A000"/>
<path fill-rule="evenodd" clip-rule="evenodd" d="M9.50001 10.0272C10.739 8.98287 11.5246 7.42892 11.5246 5.69366C11.5246 3.9584 10.739 2.40444 9.50001 1.36011C8.26106 2.40444 7.47545 3.9584 7.47545 5.69366C7.47545 7.42892 8.26106 8.98287 9.50001 10.0272Z" fill="#FF5E00"/>
</svg>
