<svg width="24" height="21" viewBox="0 0 24 21" fill="none" xmlns="http://www.w3.org/2000/svg">
<path fill-rule="evenodd" clip-rule="evenodd" d="M13.5848 1.02439C12.7962 -0.341463 10.8247 -0.341464 10.0362 1.02439L0.277541 17.9268C-0.511035 19.2927 0.474684 21 2.05184 21H21.5691C23.1462 21 24.132 19.2927 23.3434 17.9268L13.5848 1.02439ZM10.7861 6.14634C10.7861 5.58059 11.2447 5.12195 11.8105 5.12195C12.3762 5.12195 12.8349 5.58059 12.8349 6.14634V13.3171C12.8349 13.8828 12.3762 14.3415 11.8105 14.3415C11.2447 14.3415 10.7861 13.8828 10.7861 13.3171V6.14634ZM12.8349 18.439C12.8349 19.0048 12.3762 19.4634 11.8105 19.4634C11.2447 19.4634 10.7861 19.0048 10.7861 18.439C10.7861 17.8733 11.2447 17.4146 11.8105 17.4146C12.3762 17.4146 12.8349 17.8733 12.8349 18.439Z" fill="#C80101"/>
</svg>
