<svg width="25" height="25" viewBox="0 0 25 25" fill="none" xmlns="http://www.w3.org/2000/svg">
<g clip-path="url(#clip0_12_10321)">
<path d="M25 12.5C25 5.59648 19.4035 0 12.5 0C5.59648 0 0 5.59638 0 12.5C0 18.739 4.57109 23.9104 10.5469 24.8481V16.1133H7.37304V12.5H10.5469V9.74609C10.5469 6.61328 12.4131 4.88281 15.2683 4.88281C16.6359 4.88281 18.0664 5.12695 18.0664 5.12695V8.20312H16.4902C14.9373 8.20312 14.4531 9.16669 14.4531 10.1553V12.5H17.9199L17.3657 16.1133H14.4531V24.8481C20.4289 23.9104 25 18.7391 25 12.5Z" fill="#1877F2"/>
<path d="M17.3657 16.1133L17.9199 12.5H14.4531V10.1553C14.4531 9.16663 14.9373 8.20315 16.4902 8.20315H18.0663V5.12699C18.0663 5.12699 16.6359 4.88284 15.2682 4.88284C12.413 4.88284 10.5468 6.61331 10.5468 9.74612V12.5H7.37299V16.1133H10.5468V24.8482C11.1929 24.9494 11.8459 25.0002 12.4999 25C13.1539 25.0002 13.807 24.9494 14.4531 24.8482V16.1133H17.3657Z" fill="white"/>
</g>
<defs>
<clipPath id="clip0_12_10321">
<rect width="24.4286" height="24.4286" fill="white" transform="scale(1.02339)"/>
</clipPath>
</defs>
</svg>
